<svg width="20" height="20" viewBox="0 0 20 20" fill="none" xmlns="http://www.w3.org/2000/svg">
<path d="M10 1.66669C8.5382 1.66669 7.321 2.75895 7.1167 4.16669H4.26595C4.23047 4.16062 4.19453 4.15762 4.15853 4.15774C4.12743 4.15841 4.09641 4.1614 4.06576 4.16669H2.70833C2.62551 4.16552 2.54329 4.18082 2.46643 4.2117C2.38958 4.24258 2.31963 4.28843 2.26065 4.34659C2.20166 4.40474 2.15483 4.47404 2.12286 4.55045C2.09089 4.62686 2.07443 4.70886 2.07443 4.79169C2.07443 4.87452 2.09089 4.95652 2.12286 5.03293C2.15483 5.10934 2.20166 5.17863 2.26065 5.23679C2.31963 5.29494 2.38958 5.34079 2.46643 5.37167C2.54329 5.40256 2.62551 5.41786 2.70833 5.41669H3.59945L4.64844 16.2622C4.76139 17.4317 5.75491 18.3334 6.92953 18.3334H13.0697C14.2443 18.3334 15.2378 17.4318 15.3507 16.2622L16.4006 5.41669H17.2917C17.3745 5.41786 17.4567 5.40256 17.5336 5.37167C17.6104 5.34079 17.6804 5.29494 17.7394 5.23679C17.7983 5.17863 17.8452 5.10934 17.8771 5.03293C17.9091 4.95652 17.9256 4.87452 17.9256 4.79169C17.9256 4.70886 17.9091 4.62686 17.8771 4.55045C17.8452 4.47404 17.7983 4.40474 17.7394 4.34659C17.6804 4.28843 17.6104 4.24258 17.5336 4.2117C17.4567 4.18082 17.3745 4.16552 17.2917 4.16669H15.9351C15.8688 4.15593 15.8012 4.15593 15.7349 4.16669H12.8833C12.679 2.75895 11.4618 1.66669 10 1.66669ZM10 2.91669C10.783 2.91669 11.4253 3.44509 11.6089 4.16669H8.39111C8.57468 3.44509 9.21702 2.91669 10 2.91669ZM4.85433 5.41669H15.1449L14.1064 16.1418C14.0543 16.6814 13.6117 17.0834 13.0697 17.0834H6.92953C6.38831 17.0834 5.94479 16.6807 5.89274 16.1418L4.85433 5.41669ZM8.5319 7.49107C8.36628 7.49366 8.20846 7.56187 8.09311 7.68074C7.97775 7.79961 7.91429 7.9594 7.91667 8.12502V14.375C7.9155 14.4578 7.9308 14.5401 7.96168 14.6169C7.99256 14.6938 8.03841 14.7637 8.09657 14.8227C8.15472 14.8817 8.22402 14.9285 8.30043 14.9605C8.37684 14.9925 8.45884 15.0089 8.54167 15.0089C8.6245 15.0089 8.7065 14.9925 8.78291 14.9605C8.85932 14.9285 8.92861 14.8817 8.98677 14.8227C9.04492 14.7637 9.09077 14.6938 9.12165 14.6169C9.15254 14.5401 9.16784 14.4578 9.16667 14.375V8.12502C9.16787 8.04137 9.15226 7.95833 9.12078 7.88082C9.08929 7.80331 9.04257 7.7329 8.98337 7.67379C8.92418 7.61467 8.85372 7.56803 8.77616 7.53665C8.69861 7.50526 8.61555 7.48976 8.5319 7.49107V7.49107ZM11.4486 7.49107C11.2829 7.49366 11.1251 7.56187 11.0098 7.68074C10.8944 7.79961 10.831 7.9594 10.8333 8.12502V14.375C10.8322 14.4578 10.8475 14.5401 10.8783 14.6169C10.9092 14.6938 10.9551 14.7637 11.0132 14.8227C11.0714 14.8817 11.1407 14.9285 11.2171 14.9605C11.2935 14.9925 11.3755 15.0089 11.4583 15.0089C11.5412 15.0089 11.6232 14.9925 11.6996 14.9605C11.776 14.9285 11.8453 14.8817 11.9034 14.8227C11.9616 14.7637 12.0074 14.6938 12.0383 14.6169C12.0692 14.5401 12.0845 14.4578 12.0833 14.375V8.12502C12.0845 8.04137 12.0689 7.95833 12.0374 7.88082C12.006 7.80331 11.9592 7.7329 11.9 7.67379C11.8408 7.61467 11.7704 7.56803 11.6928 7.53665C11.6153 7.50526 11.5322 7.48976 11.4486 7.49107V7.49107Z" fill="white"/>
</svg>
