<svg width="20" height="20" viewBox="0 0 20 20" fill="none" xmlns="http://www.w3.org/2000/svg">
<path d="M6.44205 2.49348C6.31767 2.49538 6.19669 2.53435 6.09458 2.6054C5.99247 2.67645 5.91389 2.77635 5.86888 2.89232C5.82388 3.00829 5.8145 3.13505 5.84194 3.25638C5.86939 3.37771 5.93241 3.48809 6.02295 3.5734L12.644 9.99999L6.02295 16.4266C5.96272 16.4834 5.9144 16.5517 5.88078 16.6274C5.84717 16.7031 5.82893 16.7847 5.82713 16.8675C5.82533 16.9503 5.84 17.0326 5.8703 17.1097C5.90059 17.1868 5.9459 17.2571 6.0036 17.3165C6.06129 17.3759 6.13022 17.4233 6.20638 17.4559C6.28253 17.4884 6.3644 17.5055 6.44722 17.5061C6.53004 17.5068 6.61216 17.491 6.68881 17.4596C6.76546 17.4282 6.83511 17.3819 6.89371 17.3234L13.977 10.4484C14.037 10.3901 14.0847 10.3204 14.1173 10.2434C14.1499 10.1664 14.1666 10.0836 14.1666 9.99999C14.1666 9.91637 14.1499 9.83359 14.1173 9.75657C14.0847 9.67955 14.037 9.60985 13.977 9.55159L6.89371 2.67659C6.83453 2.61737 6.76405 2.57065 6.68646 2.5392C6.60888 2.50775 6.52576 2.4922 6.44205 2.49348V2.49348Z" fill="#0E5E6F"/>
</svg>
