<svg width="20" height="20" viewBox="0 0 20 20" fill="none" xmlns="http://www.w3.org/2000/svg">
<path d="M9.99999 1.66669C5.40499 1.66669 1.66666 5.40502 1.66666 10C1.66666 14.595 5.40499 18.3334 9.99999 18.3334C14.595 18.3334 18.3333 14.595 18.3333 10C18.3333 8.66294 18.0092 7.40301 17.4471 6.28176L16.512 7.21682C16.8787 8.0714 17.0833 9.0121 17.0833 10C17.0833 13.9059 13.9058 17.0834 9.99999 17.0834C6.09416 17.0834 2.91666 13.9059 2.91666 10C2.91666 6.09419 6.09416 2.91669 9.99999 2.91669C11.8525 2.91669 13.5356 3.63719 14.799 4.80552L15.6828 3.92173C14.1924 2.52715 12.1971 1.66669 9.99999 1.66669ZM16.4461 4.57766C16.2838 4.58239 16.1297 4.6501 16.0164 4.76646L8.95832 11.8246L7.31688 10.1831C7.25929 10.1231 7.19031 10.0753 7.11398 10.0423C7.03765 10.0093 6.95551 9.99185 6.87236 9.991C6.78921 9.99016 6.70673 10.0059 6.62974 10.0373C6.55276 10.0688 6.48282 10.1152 6.42402 10.174C6.36522 10.2328 6.31874 10.3028 6.28731 10.3798C6.25588 10.4568 6.24013 10.5392 6.24097 10.6224C6.24182 10.7055 6.25925 10.7877 6.29224 10.864C6.32523 10.9403 6.37311 11.0093 6.4331 11.0669L8.51643 13.1502C8.63364 13.2674 8.79259 13.3332 8.95832 13.3332C9.12406 13.3332 9.283 13.2674 9.40022 13.1502L16.9002 5.65025C16.9904 5.56243 17.0519 5.44944 17.0768 5.32607C17.1017 5.20269 17.0888 5.07467 17.0397 4.95877C16.9906 4.84287 16.9077 4.74448 16.8018 4.67648C16.6959 4.60848 16.5719 4.57403 16.4461 4.57766V4.57766Z" fill="white"/>
</svg>
