<svg width="230" height="230" viewBox="0 0 230 230" fill="none" xmlns="http://www.w3.org/2000/svg">
<path d="M50.3125 28.75C49.4045 28.75 48.5112 28.8002 47.6265 28.8904C45.8633 29.0701 44.1513 29.4272 42.5073 29.9386C34.2471 32.5078 27.7162 39.0388 25.1469 47.299C24.6355 48.943 24.2784 50.655 24.0987 52.4182C24.0984 52.4213 24.099 52.4245 24.0987 52.4276C24.0091 53.3093 23.9583 54.1993 23.9583 55.1042V64.6875V174.896C23.9583 189.366 35.8427 201.25 50.3125 201.25H179.687C194.157 201.25 206.042 189.366 206.042 174.896V64.6875V55.1042C206.042 54.1966 205.992 53.3031 205.901 52.4182C205.722 50.655 205.364 48.943 204.853 47.299C202.284 39.0388 195.753 32.5078 187.493 29.9386C185.849 29.4272 184.137 29.0701 182.373 28.8904C182.37 28.8901 182.367 28.8907 182.364 28.8904C181.482 28.7998 180.592 28.75 179.687 28.75H50.3125ZM50.3125 43.125C54.28 43.125 57.5 46.345 57.5 50.3125C57.5 54.28 54.28 57.5 50.3125 57.5C46.345 57.5 43.125 54.28 43.125 50.3125C43.125 46.345 46.345 43.125 50.3125 43.125ZM74.2708 43.125C78.2383 43.125 81.4583 46.345 81.4583 50.3125C81.4583 54.28 78.2383 57.5 74.2708 57.5C70.3033 57.5 67.0833 54.28 67.0833 50.3125C67.0833 46.345 70.3033 43.125 74.2708 43.125ZM103.021 43.125H179.687C183.655 43.125 186.875 46.345 186.875 50.3125C186.875 54.28 183.655 57.5 179.687 57.5H103.021C99.0533 57.5 95.8333 54.28 95.8333 50.3125C95.8333 46.345 99.0533 43.125 103.021 43.125ZM38.3333 71.875H191.667V174.896C191.667 181.596 186.387 186.875 179.687 186.875H50.3125C43.6126 186.875 38.3333 181.596 38.3333 174.896V71.875ZM83.8541 91.0417C80.6771 91.0417 77.6301 92.3038 75.3836 94.5503C73.1371 96.7968 71.875 99.8438 71.875 103.021C71.875 106.198 73.1371 109.245 75.3836 111.491C77.6301 113.738 80.6771 115 83.8541 115C87.0312 115 90.0782 113.738 92.3247 111.491C94.5712 109.245 95.8333 106.198 95.8333 103.021C95.8333 99.8438 94.5712 96.7968 92.3247 94.5503C90.0782 92.3038 87.0312 91.0417 83.8541 91.0417V91.0417ZM146.146 91.0417C142.969 91.0417 139.922 92.3038 137.675 94.5503C135.429 96.7968 134.167 99.8438 134.167 103.021C134.167 106.198 135.429 109.245 137.675 111.491C139.922 113.738 142.969 115 146.146 115C149.323 115 152.37 113.738 154.616 111.491C156.863 109.245 158.125 106.198 158.125 103.021C158.125 99.8438 156.863 96.7968 154.616 94.5503C152.37 92.3038 149.323 91.0417 146.146 91.0417V91.0417ZM75.581 134.092C74.2137 134.069 72.8683 134.437 71.7026 135.152C70.5369 135.867 69.5994 136.899 69 138.129C68.4007 139.358 68.1644 140.732 68.3189 142.091C68.4733 143.45 69.0122 144.736 69.8722 145.8C80.3866 159.162 96.7578 167.708 115 167.708C133.242 167.708 149.613 159.162 160.128 145.8C160.726 145.059 161.172 144.208 161.439 143.294C161.706 142.38 161.789 141.422 161.682 140.476C161.576 139.53 161.283 138.614 160.82 137.783C160.357 136.951 159.733 136.219 158.985 135.63C158.237 135.042 157.379 134.607 156.462 134.353C155.544 134.098 154.586 134.028 153.641 134.147C152.696 134.266 151.785 134.571 150.959 135.045C150.134 135.519 149.411 136.153 148.832 136.909C140.946 146.93 128.766 153.333 115 153.333C101.234 153.333 89.0538 146.93 81.1682 136.909C80.5094 136.048 79.6647 135.348 78.6972 134.86C77.7297 134.373 76.6644 134.11 75.581 134.092Z" fill="#0E5E6F" fill-opacity="0.4"/>
</svg>
