<svg width="32" height="32" viewBox="0 0 32 32" fill="none" xmlns="http://www.w3.org/2000/svg">
<path d="M15.9844 3.31903C15.7194 3.32317 15.4669 3.43232 15.2823 3.62251C15.0977 3.81269 14.9962 4.06836 15 4.33335V15H4.33333C4.20082 14.9981 4.06926 15.0226 3.94629 15.072C3.82332 15.1215 3.7114 15.1948 3.61703 15.2879C3.52266 15.3809 3.44773 15.4918 3.39658 15.614C3.34543 15.7363 3.31909 15.8675 3.31909 16C3.31909 16.1325 3.34543 16.2637 3.39658 16.386C3.44773 16.5083 3.52266 16.6191 3.61703 16.7122C3.7114 16.8052 3.82332 16.8786 3.94629 16.928C4.06926 16.9774 4.20082 17.0019 4.33333 17H15V27.6667C14.9981 27.7992 15.0226 27.9308 15.072 28.0537C15.1214 28.1767 15.1948 28.2886 15.2878 28.383C15.3809 28.4774 15.4918 28.5523 15.614 28.6034C15.7363 28.6546 15.8675 28.6809 16 28.6809C16.1325 28.6809 16.2637 28.6546 16.386 28.6034C16.5082 28.5523 16.6191 28.4774 16.7122 28.383C16.8052 28.2886 16.8786 28.1767 16.928 28.0537C16.9774 27.9308 17.0019 27.7992 17 27.6667V17H27.6667C27.7992 17.0019 27.9307 16.9774 28.0537 16.928C28.1767 16.8786 28.2886 16.8052 28.383 16.7122C28.4773 16.6191 28.5523 16.5083 28.6034 16.386C28.6546 16.2637 28.6809 16.1325 28.6809 16C28.6809 15.8675 28.6546 15.7363 28.6034 15.614C28.5523 15.4918 28.4773 15.3809 28.383 15.2879C28.2886 15.1948 28.1767 15.1215 28.0537 15.072C27.9307 15.0226 27.7992 14.9981 27.6667 15H17V4.33335C17.0019 4.19951 16.977 4.06664 16.9266 3.94263C16.8762 3.81861 16.8014 3.70597 16.7067 3.61138C16.612 3.51679 16.4993 3.44217 16.3752 3.39195C16.2511 3.34174 16.1182 3.31694 15.9844 3.31903Z" fill="#0E5E6F"/>
</svg>
