<svg width="24" height="24" viewBox="0 0 24 24" fill="none" xmlns="http://www.w3.org/2000/svg">
<path d="M5.74998 3C4.23348 3 2.99998 4.234 2.99998 5.75V6H3.04002C3.01261 6.08046 2.99907 6.165 2.99998 6.25V18.25C2.99998 19.7599 4.2401 21 5.74998 21H18.25C19.7599 21 21 19.7599 21 18.25V6.25C21.0009 6.165 20.9874 6.08046 20.9599 6H21V5.75C21 4.234 19.7665 3 18.25 3H5.74998ZM4.45994 6H19.54C19.5126 6.08046 19.4991 6.165 19.5 6.25V18.25C19.5 18.9491 18.9491 19.5 18.25 19.5H5.74998C5.05087 19.5 4.49998 18.9491 4.49998 18.25V6.25C4.5009 6.165 4.48736 6.08046 4.45994 6V6ZM6.74998 8.5C6.6506 8.49859 6.55193 8.51696 6.4597 8.55402C6.36747 8.59108 6.28353 8.6461 6.21276 8.71588C6.14198 8.78566 6.08578 8.86882 6.04742 8.96051C6.00906 9.0522 5.9893 9.15061 5.9893 9.25C5.9893 9.34939 6.00906 9.4478 6.04742 9.53949C6.08578 9.63118 6.14198 9.71434 6.21276 9.78412C6.28353 9.8539 6.36747 9.90892 6.4597 9.94598C6.55193 9.98304 6.6506 10.0014 6.74998 10H17.25C17.3494 10.0014 17.448 9.98304 17.5403 9.94598C17.6325 9.90892 17.7164 9.8539 17.7872 9.78412C17.858 9.71434 17.9142 9.63118 17.9525 9.53949C17.9909 9.4478 18.0107 9.34939 18.0107 9.25C18.0107 9.15061 17.9909 9.0522 17.9525 8.96051C17.9142 8.86882 17.858 8.78566 17.7872 8.71588C17.7164 8.6461 17.6325 8.59108 17.5403 8.55402C17.448 8.51696 17.3494 8.49859 17.25 8.5H6.74998ZM7.24998 11.5C6.91846 11.5 6.60052 11.6317 6.3661 11.8661C6.13168 12.1005 5.99998 12.4185 5.99998 12.75C5.99998 13.0815 6.13168 13.3995 6.3661 13.6339C6.60052 13.8683 6.91846 14 7.24998 14C7.5815 14 7.89945 13.8683 8.13387 13.6339C8.36829 13.3995 8.49998 13.0815 8.49998 12.75C8.49998 12.4185 8.36829 12.1005 8.13387 11.8661C7.89945 11.6317 7.5815 11.5 7.24998 11.5V11.5ZM10.75 12C10.6506 11.9986 10.5519 12.017 10.4597 12.054C10.3675 12.0911 10.2835 12.1461 10.2128 12.2159C10.142 12.2857 10.0858 12.3688 10.0474 12.4605C10.0091 12.5522 9.9893 12.6506 9.9893 12.75C9.9893 12.8494 10.0091 12.9478 10.0474 13.0395C10.0858 13.1312 10.142 13.2143 10.2128 13.2841C10.2835 13.3539 10.3675 13.4089 10.4597 13.446C10.5519 13.483 10.6506 13.5014 10.75 13.5H17.25C17.3494 13.5014 17.448 13.483 17.5403 13.446C17.6325 13.4089 17.7164 13.3539 17.7872 13.2841C17.858 13.2143 17.9142 13.1312 17.9525 13.0395C17.9909 12.9478 18.0107 12.8494 18.0107 12.75C18.0107 12.6506 17.9909 12.5522 17.9525 12.4605C17.9142 12.3688 17.858 12.2857 17.7872 12.2159C17.7164 12.1461 17.6325 12.0911 17.5403 12.054C17.448 12.017 17.3494 11.9986 17.25 12H10.75ZM7.24998 15C6.91846 15 6.60052 15.1317 6.3661 15.3661C6.13168 15.6005 5.99998 15.9185 5.99998 16.25C5.99998 16.5815 6.13168 16.8995 6.3661 17.1339C6.60052 17.3683 6.91846 17.5 7.24998 17.5C7.5815 17.5 7.89945 17.3683 8.13387 17.1339C8.36829 16.8995 8.49998 16.5815 8.49998 16.25C8.49998 15.9185 8.36829 15.6005 8.13387 15.3661C7.89945 15.1317 7.5815 15 7.24998 15V15ZM10.75 15.5C10.6506 15.4986 10.5519 15.517 10.4597 15.554C10.3675 15.5911 10.2835 15.6461 10.2128 15.7159C10.142 15.7857 10.0858 15.8688 10.0474 15.9605C10.0091 16.0522 9.9893 16.1506 9.9893 16.25C9.9893 16.3494 10.0091 16.4478 10.0474 16.5395C10.0858 16.6312 10.142 16.7143 10.2128 16.7841C10.2835 16.8539 10.3675 16.9089 10.4597 16.946C10.5519 16.983 10.6506 17.0014 10.75 17H17.25C17.3494 17.0014 17.448 16.983 17.5403 16.946C17.6325 16.9089 17.7164 16.8539 17.7872 16.7841C17.858 16.7143 17.9142 16.6312 17.9525 16.5395C17.9909 16.4478 18.0107 16.3494 18.0107 16.25C18.0107 16.1506 17.9909 16.0522 17.9525 15.9605C17.9142 15.8688 17.858 15.7857 17.7872 15.7159C17.7164 15.6461 17.6325 15.5911 17.5403 15.554C17.448 15.517 17.3494 15.4986 17.25 15.5H10.75Z" fill="#0E5E6F"/>
</svg>
