<svg width="20" height="20" viewBox="0 0 20 20" fill="none" xmlns="http://www.w3.org/2000/svg">
<path d="M3.95834 2.5C3.38543 2.5 2.8766 2.73735 2.55372 3.10059C2.23084 3.46382 2.08334 3.92361 2.08334 4.375C2.08334 4.82639 2.23084 5.28618 2.55372 5.64941C2.8766 6.01265 3.38543 6.25 3.95834 6.25C4.53126 6.25 5.04009 6.01265 5.36297 5.64941C5.68584 5.28618 5.83334 4.82639 5.83334 4.375C5.83334 3.92361 5.68584 3.46382 5.36297 3.10059C5.04009 2.73735 4.53126 2.5 3.95834 2.5ZM3.95834 3.75C4.21876 3.75 4.33493 3.82515 4.42872 3.93066C4.52251 4.03618 4.58334 4.20139 4.58334 4.375C4.58334 4.54861 4.52251 4.71382 4.42872 4.81934C4.33493 4.92485 4.21876 5 3.95834 5C3.69793 5 3.58175 4.92485 3.48797 4.81934C3.39418 4.71382 3.33334 4.54861 3.33334 4.375C3.33334 4.20139 3.39418 4.03618 3.48797 3.93066C3.58175 3.82515 3.69793 3.75 3.95834 3.75ZM7.70834 3.75C7.62552 3.74883 7.5433 3.76413 7.46644 3.79501C7.38959 3.8259 7.31964 3.87175 7.26065 3.9299C7.20167 3.98805 7.15484 4.05735 7.12287 4.13376C7.0909 4.21017 7.07444 4.29217 7.07444 4.375C7.07444 4.45783 7.0909 4.53983 7.12287 4.61624C7.15484 4.69265 7.20167 4.76195 7.26065 4.8201C7.31964 4.87825 7.38959 4.9241 7.46644 4.95499C7.5433 4.98587 7.62552 5.00117 7.70834 5H17.2917C17.3745 5.00117 17.4567 4.98587 17.5336 4.95499C17.6104 4.9241 17.6804 4.87825 17.7394 4.8201C17.7983 4.76195 17.8452 4.69265 17.8771 4.61624C17.9091 4.53983 17.9256 4.45783 17.9256 4.375C17.9256 4.29217 17.9091 4.21017 17.8771 4.13376C17.8452 4.05735 17.7983 3.98805 17.7394 3.9299C17.6804 3.87175 17.6104 3.8259 17.5336 3.79501C17.4567 3.76413 17.3745 3.74883 17.2917 3.75H7.70834ZM3.95834 8.125C3.38543 8.125 2.8766 8.36235 2.55372 8.72559C2.23084 9.08883 2.08334 9.54861 2.08334 10C2.08334 10.4514 2.23084 10.9112 2.55372 11.2744C2.8766 11.6377 3.38543 11.875 3.95834 11.875C4.53126 11.875 5.04009 11.6377 5.36297 11.2744C5.68584 10.9112 5.83334 10.4514 5.83334 10C5.83334 9.54861 5.68584 9.08883 5.36297 8.72559C5.04009 8.36235 4.53126 8.125 3.95834 8.125ZM3.95834 9.375C4.21876 9.375 4.33493 9.45015 4.42872 9.55566C4.52251 9.66118 4.58334 9.82639 4.58334 10C4.58334 10.1736 4.52251 10.3388 4.42872 10.4443C4.33493 10.5498 4.21876 10.625 3.95834 10.625C3.69793 10.625 3.58175 10.5498 3.48797 10.4443C3.39418 10.3388 3.33334 10.1736 3.33334 10C3.33334 9.82639 3.39418 9.66118 3.48797 9.55566C3.58175 9.45015 3.69793 9.375 3.95834 9.375ZM7.70834 9.375C7.62552 9.37383 7.5433 9.38913 7.46644 9.42001C7.38959 9.4509 7.31964 9.49675 7.26065 9.5549C7.20167 9.61305 7.15484 9.68235 7.12287 9.75876C7.0909 9.83517 7.07444 9.91717 7.07444 10C7.07444 10.0828 7.0909 10.1648 7.12287 10.2412C7.15484 10.3177 7.20167 10.3869 7.26065 10.4451C7.31964 10.5033 7.38959 10.5491 7.46644 10.58C7.5433 10.6109 7.62552 10.6262 7.70834 10.625H17.2917C17.3745 10.6262 17.4567 10.6109 17.5336 10.58C17.6104 10.5491 17.6804 10.5033 17.7394 10.4451C17.7983 10.3869 17.8452 10.3177 17.8771 10.2412C17.9091 10.1648 17.9256 10.0828 17.9256 10C17.9256 9.91717 17.9091 9.83517 17.8771 9.75876C17.8452 9.68235 17.7983 9.61305 17.7394 9.5549C17.6804 9.49675 17.6104 9.4509 17.5336 9.42001C17.4567 9.38913 17.3745 9.37383 17.2917 9.375H7.70834ZM14.5833 11.6667C12.9799 11.6667 11.6667 12.9799 11.6667 14.5833C11.6667 16.1868 12.9799 17.5 14.5833 17.5C15.1572 17.5 15.6631 17.289 16.1157 16.9995L18.0998 18.9836C18.1574 19.0435 18.2264 19.0914 18.3027 19.1244C18.379 19.1574 18.4612 19.1748 18.5443 19.1757C18.6275 19.1765 18.7099 19.1608 18.7869 19.1293C18.8639 19.0979 18.9338 19.0514 18.9926 18.9926C19.0514 18.9338 19.0979 18.8639 19.1294 18.7869C19.1608 18.7099 19.1765 18.6274 19.1757 18.5443C19.1748 18.4612 19.1574 18.379 19.1244 18.3027C19.0914 18.2263 19.0436 18.1574 18.9836 18.0998L16.9995 16.1157C17.289 15.6631 17.5 15.1571 17.5 14.5833C17.5 12.9799 16.1868 11.6667 14.5833 11.6667ZM14.5833 12.9167C15.5112 12.9167 16.25 13.6555 16.25 14.5833C16.25 15.5112 15.5112 16.25 14.5833 16.25C13.6555 16.25 12.9167 15.5112 12.9167 14.5833C12.9167 13.6555 13.6555 12.9167 14.5833 12.9167ZM3.95834 13.75C3.38543 13.75 2.8766 13.9873 2.55372 14.3506C2.23084 14.7138 2.08334 15.1736 2.08334 15.625C2.08334 16.0764 2.23084 16.5362 2.55372 16.8994C2.8766 17.2627 3.38543 17.5 3.95834 17.5C4.53126 17.5 5.04009 17.2627 5.36297 16.8994C5.68584 16.5362 5.83334 16.0764 5.83334 15.625C5.83334 15.1736 5.68584 14.7138 5.36297 14.3506C5.04009 13.9873 4.53126 13.75 3.95834 13.75ZM3.95834 15C4.21876 15 4.33493 15.0752 4.42872 15.1807C4.52251 15.2862 4.58334 15.4514 4.58334 15.625C4.58334 15.7986 4.52251 15.9638 4.42872 16.0693C4.33493 16.1748 4.21876 16.25 3.95834 16.25C3.69793 16.25 3.58175 16.1748 3.48797 16.0693C3.39418 15.9638 3.33334 15.7986 3.33334 15.625C3.33334 15.4514 3.39418 15.2862 3.48797 15.1807C3.58175 15.0752 3.69793 15 3.95834 15ZM7.70834 15C7.36293 15 7.08334 15.28 7.08334 15.625C7.08334 15.97 7.36293 16.25 7.70834 16.25H11.228C11.0364 15.8658 10.9069 15.4454 10.8578 15H7.70834Z" fill="#0E5E6F"/>
</svg>
