<svg width="32" height="32" viewBox="0 0 32 32" fill="none" xmlns="http://www.w3.org/2000/svg">
<path d="M14.3138 5.99089C14.0541 5.99846 13.8075 6.1068 13.6263 6.29298L4.29296 15.6263C4.10549 15.8139 4.00018 16.0682 4.00018 16.3333C4.00018 16.5985 4.10549 16.8528 4.29296 17.0404L13.6263 26.3737C13.7184 26.4697 13.8288 26.5463 13.9509 26.5991C14.0731 26.6519 14.2045 26.6797 14.3375 26.6811C14.4706 26.6825 14.6025 26.6572 14.7257 26.607C14.8489 26.5567 14.9608 26.4823 15.0549 26.3882C15.149 26.2942 15.2233 26.1822 15.2736 26.0591C15.3239 25.9359 15.3491 25.8039 15.3477 25.6709C15.3464 25.5378 15.3185 25.4064 15.2657 25.2843C15.2129 25.1622 15.1363 25.0518 15.0404 24.9596L7.41405 17.3333H27C27.1325 17.3352 27.2641 17.3107 27.387 17.2613C27.51 17.2119 27.6219 17.1385 27.7163 17.0455C27.8107 16.9525 27.8856 16.8416 27.9367 16.7193C27.9879 16.5971 28.0142 16.4659 28.0142 16.3333C28.0142 16.2008 27.9879 16.0696 27.9367 15.9474C27.8856 15.8251 27.8107 15.7142 27.7163 15.6212C27.6219 15.5281 27.51 15.4548 27.387 15.4054C27.2641 15.3559 27.1325 15.3315 27 15.3333H7.41405L15.0404 7.70704C15.1846 7.56654 15.2831 7.38575 15.3229 7.18835C15.3628 6.99094 15.3421 6.78612 15.2635 6.60067C15.185 6.41523 15.0524 6.2578 14.8829 6.149C14.7134 6.0402 14.5151 5.9851 14.3138 5.99089V5.99089Z" fill="#0E5E6F"/>
</svg>
